<svg width="561" height="146" viewBox="0 0 561 146" fill="none" xmlns="http://www.w3.org/2000/svg">
<path d="M109.43 52.2023L108.712 50.9425L103.733 53.7812L104.452 55.0409C109.131 63.2478 110.33 72.8 107.83 81.9381C105.328 91.0763 99.4315 98.6856 91.2246 103.366C74.256 113.043 52.5769 107.108 42.8999 90.1385C33.2236 73.1685 39.1576 51.4901 56.1269 41.8139C65.7698 36.3158 77.1751 35.6529 87.2625 39.8637L84.0722 40.9595L85.9332 46.3786L98.2072 42.1634L93.5033 30.067L88.1633 32.1456L89.0379 34.3946C77.4296 29.7095 64.3114 30.5508 53.2883 36.8365C43.7528 42.2729 36.9014 51.1137 33.996 61.7284C31.09 72.3439 32.4846 83.4416 37.9218 92.9771C45.505 106.276 59.4319 113.74 73.7454 113.74C80.6505 113.74 87.6476 112.003 94.0632 108.344C103.599 102.906 110.45 94.0665 113.355 83.4503C116.262 72.8356 114.867 61.7378 109.43 52.2023Z" fill="#3F444A"/>
<path d="M115.249 97.2242C115.193 97.3177 115.138 97.4113 115.083 97.5041C114.569 98.3541 114.029 99.1903 113.461 100.013C113.391 100.115 113.32 100.216 113.248 100.317C113.016 100.647 112.781 100.974 112.54 101.299C112.476 101.384 112.414 101.47 112.35 101.556C112.05 101.954 111.745 102.349 111.432 102.739C111.38 102.805 111.325 102.869 111.272 102.935C111.009 103.259 110.741 103.582 110.469 103.9C110.377 104.008 110.285 104.115 110.192 104.221C109.915 104.54 109.633 104.856 109.346 105.169C109.29 105.231 109.235 105.293 109.178 105.355C108.838 105.722 108.491 106.084 108.137 106.442C108.047 106.533 107.954 106.624 107.864 106.715C107.587 106.992 107.307 107.265 107.022 107.536C106.916 107.636 106.811 107.737 106.705 107.836C106.333 108.183 105.956 108.529 105.571 108.867C105.228 109.169 104.88 109.463 104.531 109.754C104.418 109.848 104.304 109.938 104.191 110.031C103.951 110.226 103.709 110.421 103.466 110.612C103.334 110.715 103.202 110.817 103.068 110.919C102.838 111.096 102.606 111.271 102.374 111.443C102.239 111.542 102.104 111.641 101.968 111.74C101.726 111.915 101.484 112.087 101.24 112.256C101.115 112.343 100.99 112.431 100.865 112.516C100.576 112.714 100.283 112.907 99.9902 113.098C99.9112 113.149 99.8321 113.203 99.7531 113.254C99.3694 113.499 98.9843 113.739 98.597 113.974C98.563 113.994 98.5289 114.013 98.4948 114.034C98.1459 114.244 97.7949 114.448 97.441 114.648C97.3431 114.704 97.243 114.758 97.1436 114.813C96.8499 114.977 96.5562 115.136 96.2596 115.293C96.1493 115.352 96.0384 115.409 95.9267 115.467C95.6322 115.62 95.3356 115.77 95.039 115.917C94.9367 115.967 94.8359 116.017 94.7336 116.066C94.4 116.228 94.0642 116.385 93.7277 116.539C93.6661 116.567 93.6044 116.596 93.5421 116.625C92.2946 117.187 91.0284 117.694 89.7476 118.144C89.7128 118.156 89.6772 118.168 89.6424 118.18C89.2479 118.318 88.8526 118.45 88.4566 118.577C88.4167 118.59 88.3768 118.602 88.3377 118.615C87.9221 118.747 87.5066 118.873 87.0888 118.993C87.0816 118.995 87.0736 118.997 87.0663 118.999C69.6517 124.002 50.1215 118.966 37.3767 104.457C19.7235 84.3771 21.7092 53.8522 41.742 36.2265C61.798 18.6197 92.3744 20.617 109.981 40.6665C121.902 54.2286 124.85 72.6093 119.294 88.5321C119.265 88.614 119.236 88.6967 119.207 88.7787C119.058 89.2 118.903 89.6185 118.741 90.0355C118.721 90.087 118.703 90.1385 118.682 90.19C118.497 90.6643 118.305 91.1357 118.105 91.6042C118.088 91.6427 118.071 91.6804 118.054 91.7195C117.875 92.1351 117.688 92.5492 117.498 92.9604C117.455 93.0518 117.412 93.1425 117.37 93.2331C117.167 93.6639 116.957 94.0925 116.741 94.5183C116.733 94.5342 116.725 94.5495 116.717 94.5654C116.488 95.0151 116.25 95.4604 116.006 95.9042C115.96 95.9854 115.914 96.0659 115.869 96.1472C115.667 96.5083 115.46 96.8673 115.249 97.2242ZM147.083 78.887C147.316 76.0303 147.413 73.1373 147.312 70.2239C147.232 67.3918 146.962 64.5931 146.549 61.8531L131.966 59.4366L127.022 45.6395L136.74 34.4997C133.793 29.5956 130.285 25.0824 126.322 21.0217L113.099 27.6599L100.977 19.4167L102.288 4.6703C97.2604 2.5504 91.9436 0.957016 86.4245 -0.000305176L79.5549 13.1209L64.8933 13.4646L57.3638 0.7061C51.7279 1.99051 46.3415 3.90225 41.2873 6.38695L43.4471 21.0311L31.7952 29.9444L18.2179 24.083C14.4916 28.3489 11.241 33.0499 8.56992 38.118L18.9025 48.6819L14.7403 62.7314L0.310083 65.9827C0.0511693 68.8895 -0.0605266 71.8608 0.032305 74.8793C0.134565 77.6345 0.381881 80.3361 0.755383 83.0006L15.3452 85.4585L20.2428 99.2715L10.4606 110.385C13.4175 115.293 16.9081 119.856 20.8745 123.927L34.1226 117.332L46.2204 125.61L44.8497 140.359C50.0374 142.554 55.5094 144.207 61.1982 145.18L68.0293 132.027L82.688 131.622L90.2436 144.362C95.8752 143.053 101.254 141.113 106.304 138.617L104.102 123.981L115.714 115.017L129.305 120.841C133.033 116.547 136.275 111.837 138.924 106.774L128.531 96.2523L132.642 82.1608L147.083 78.887Z" fill="#00A99D"/>
<path d="M92.6917 55.6098L73.783 75.4228C73.7475 75.4221 73.712 75.4177 73.6757 75.4177C73.4393 75.4177 73.2079 75.4424 72.9845 75.4859L57.1597 63.528C56.1117 62.7419 54.6097 62.942 53.8112 64.0023C53.0141 65.0496 53.2194 66.5581 54.2797 67.3559L70.0995 79.3094C70.2525 81.1508 71.7944 82.6006 73.6757 82.6006C75.6585 82.6006 77.2664 80.992 77.2664 79.0092C77.2664 78.9142 77.2606 78.822 77.2526 78.7285L96.1576 58.9147C97.0693 57.9538 97.0374 56.4453 96.0779 55.5293C95.1242 54.6126 93.6084 54.6561 92.6917 55.6098Z" fill="#3F444A"/>
<path d="M192.38 57.7406C189.933 57.7406 187.728 58.1653 185.766 59.0147C183.825 59.8439 182.166 61.0574 180.791 62.6552C179.436 64.2327 178.394 66.1439 177.666 68.3888C176.938 70.6338 176.574 73.1618 176.574 75.9731C176.574 79.6944 177.151 82.9303 178.303 85.6809C179.476 88.4112 181.216 90.5247 183.521 92.0213C185.847 93.5179 188.749 94.2662 192.228 94.2662C194.21 94.2662 196.071 94.1044 197.81 93.7808C199.57 93.437 201.279 93.0123 202.937 92.5067V96.9965C201.319 97.6033 199.62 98.0482 197.84 98.3314C196.061 98.6347 193.947 98.7864 191.5 98.7864C186.99 98.7864 183.218 97.8561 180.184 95.9954C177.171 94.1145 174.906 91.4651 173.389 88.0472C171.892 84.6292 171.144 80.5944 171.144 75.9427C171.144 72.5854 171.609 69.5214 172.539 66.7506C173.49 63.9596 174.865 61.5529 176.665 59.5305C178.485 57.508 180.71 55.9507 183.339 54.8586C185.989 53.7462 189.022 53.19 192.44 53.19C194.685 53.19 196.849 53.4125 198.933 53.8575C201.016 54.3024 202.897 54.9395 204.575 55.7687L202.512 60.1372C201.097 59.49 199.539 58.9338 197.84 58.4687C196.162 57.9833 194.342 57.7406 192.38 57.7406ZM212.554 98.1797V53.8271H217.711V93.5685H237.4V98.1797H212.554ZM283.482 75.9427C283.482 79.3607 283.047 82.4753 282.177 85.2865C281.307 88.0775 280.013 90.4842 278.294 92.5067C276.595 94.5089 274.482 96.0561 271.953 97.1482C269.425 98.2404 266.493 98.7864 263.156 98.7864C259.718 98.7864 256.714 98.2404 254.146 97.1482C251.597 96.0561 249.474 94.4988 247.775 92.4763C246.096 90.4539 244.832 88.037 243.983 85.2258C243.154 82.4146 242.739 79.3 242.739 75.8821C242.739 71.3517 243.487 67.3776 244.984 63.9596C246.481 60.5417 248.746 57.8822 251.779 55.981C254.833 54.0799 258.656 53.1294 263.247 53.1294C267.636 53.1294 271.327 54.0698 274.32 55.9507C277.333 57.8316 279.609 60.481 281.146 63.899C282.703 67.2967 283.482 71.3113 283.482 75.9427ZM248.169 75.9427C248.169 79.7045 248.705 82.9607 249.777 85.7112C250.849 88.4618 252.487 90.5853 254.692 92.082C256.916 93.5786 259.738 94.3269 263.156 94.3269C266.594 94.3269 269.405 93.5786 271.589 92.082C273.794 90.5853 275.422 88.4618 276.474 85.7112C277.525 82.9607 278.051 79.7045 278.051 75.9427C278.051 70.2192 276.848 65.7495 274.441 62.5338C272.055 59.2979 268.323 57.6799 263.247 57.6799C259.809 57.6799 256.977 58.4181 254.752 59.8945C252.528 61.3709 250.869 63.4743 249.777 66.2046C248.705 68.9147 248.169 72.1607 248.169 75.9427ZM312.332 57.7406C309.885 57.7406 307.68 58.1653 305.718 59.0147C303.777 59.8439 302.118 61.0574 300.743 62.6552C299.388 64.2327 298.347 66.1439 297.619 68.3888C296.89 70.6338 296.526 73.1618 296.526 75.9731C296.526 79.6944 297.103 82.9303 298.256 85.6809C299.429 88.4112 301.168 90.5247 303.474 92.0213C305.799 93.5179 308.702 94.2662 312.18 94.2662C314.162 94.2662 316.023 94.1044 317.762 93.7808C319.522 93.437 321.231 93.0123 322.889 92.5067V96.9965C321.271 97.6033 319.572 98.0482 317.793 98.3314C316.013 98.6347 313.899 98.7864 311.452 98.7864C306.942 98.7864 303.17 97.8561 300.136 95.9954C297.123 94.1145 294.858 91.4651 293.341 88.0472C291.844 84.6292 291.096 80.5944 291.096 75.9427C291.096 72.5854 291.561 69.5214 292.492 66.7506C293.442 63.9596 294.817 61.5529 296.617 59.5305C298.438 57.508 300.662 55.9507 303.292 54.8586C305.941 53.7462 308.975 53.19 312.393 53.19C314.638 53.19 316.802 53.4125 318.885 53.8575C320.968 54.3024 322.849 54.9395 324.527 55.7687L322.464 60.1372C321.049 59.49 319.491 58.9338 317.793 58.4687C316.114 57.9833 314.294 57.7406 312.332 57.7406ZM364.481 98.1797H358.383L342.396 76.6101L337.663 80.8573V98.1797H332.506V53.8271H337.663V75.9427C338.816 74.6281 339.999 73.3236 341.213 72.0293C342.426 70.7147 343.63 69.39 344.823 68.0551L357.777 53.8271H363.814L346.158 73.0607L364.481 98.1797Z" fill="#4D4D4E"/>
<path d="M433.809 53.8271L421.947 98.1797H416.759L407.962 68.3282C407.699 67.4787 407.446 66.6293 407.203 65.7799C406.981 64.9102 406.769 64.0911 406.566 63.3226C406.364 62.5338 406.192 61.8462 406.051 61.2597C405.929 60.6529 405.838 60.1979 405.777 59.8945C405.737 60.1979 405.656 60.6428 405.535 61.2293C405.434 61.8158 405.292 62.4934 405.11 63.2619C404.948 64.0304 404.746 64.8495 404.503 65.7192C404.281 66.5888 404.038 67.4686 403.775 68.3585L395.22 98.1797H390.033L378.262 53.8271H383.632L390.761 81.6461C391.003 82.5764 391.226 83.4966 391.428 84.4067C391.651 85.2966 391.843 86.1663 392.005 87.0157C392.187 87.8651 392.348 88.6943 392.49 89.5033C392.631 90.3123 392.763 91.1011 392.884 91.8696C392.985 91.0808 393.117 90.2618 393.279 89.4123C393.44 88.5427 393.612 87.6629 393.794 86.773C393.997 85.8831 394.209 84.9831 394.431 84.073C394.674 83.1629 394.927 82.2528 395.19 81.3427L403.169 53.8271H408.477L416.79 81.5551C417.073 82.5056 417.336 83.4461 417.579 84.3764C417.821 85.3067 418.034 86.2168 418.216 87.1067C418.418 87.9764 418.59 88.8157 418.731 89.6247C418.893 90.4134 419.035 91.1617 419.156 91.8696C419.298 90.8786 419.47 89.837 419.672 88.7449C419.874 87.6528 420.107 86.5101 420.37 85.3168C420.653 84.1236 420.956 82.8899 421.28 81.6157L428.409 53.8271H433.809ZM479.284 75.9427C479.284 79.3607 478.849 82.4753 477.979 85.2865C477.11 88.0775 475.815 90.4842 474.096 92.5067C472.397 94.5089 470.284 96.0561 467.756 97.1482C465.228 98.2404 462.295 98.7864 458.958 98.7864C455.52 98.7864 452.517 98.2404 449.948 97.1482C447.4 96.0561 445.276 94.4988 443.577 92.4763C441.899 90.4539 440.635 88.037 439.785 85.2258C438.956 82.4146 438.541 79.3 438.541 75.8821C438.541 71.3517 439.29 67.3776 440.786 63.9596C442.283 60.5417 444.548 57.8822 447.582 55.981C450.636 54.0799 454.458 53.1294 459.049 53.1294C463.438 53.1294 467.129 54.0698 470.122 55.9507C473.136 57.8316 475.411 60.481 476.948 63.899C478.505 67.2967 479.284 71.3113 479.284 75.9427ZM443.972 75.9427C443.972 79.7045 444.508 82.9607 445.58 85.7112C446.651 88.4618 448.29 90.5853 450.494 92.082C452.719 93.5786 455.54 94.3269 458.958 94.3269C462.396 94.3269 465.208 93.5786 467.392 92.082C469.596 90.5853 471.224 88.4618 472.276 85.7112C473.328 82.9607 473.854 79.7045 473.854 75.9427C473.854 70.2192 472.65 65.7495 470.243 62.5338C467.857 59.2979 464.125 57.6799 459.049 57.6799C455.611 57.6799 452.779 58.4181 450.555 59.8945C448.33 61.3709 446.672 63.4743 445.58 66.2046C444.508 68.9147 443.972 72.1607 443.972 75.9427ZM501.157 53.8271C504.797 53.8271 507.801 54.2822 510.167 55.1923C512.553 56.0822 514.333 57.4473 515.506 59.2878C516.679 61.1282 517.266 63.4743 517.266 66.3259C517.266 68.672 516.841 70.6338 515.992 72.2113C515.142 73.7686 514.03 75.0326 512.654 76.0034C511.279 76.9742 509.813 77.7225 508.256 78.2483L520.421 98.1797H514.414L503.553 79.6742H494.331V98.1797H489.174V53.8271H501.157ZM500.853 58.2866H494.331V75.3057H501.369C504.989 75.3057 507.649 74.5675 509.348 73.0911C511.067 71.6147 511.926 69.4405 511.926 66.5686C511.926 63.5552 511.016 61.4215 509.196 60.1675C507.396 58.9136 504.615 58.2866 500.853 58.2866ZM559.495 98.1797H553.397L537.409 76.6101L532.677 80.8573V98.1797H527.52V53.8271H532.677V75.9427C533.83 74.6281 535.013 73.3236 536.226 72.0293C537.44 70.7147 538.643 69.39 539.836 68.0551L552.79 53.8271H558.827L541.171 73.0607L559.495 98.1797Z" fill="#00A99D"/>
</svg>
