<svg width="148" height="146" viewBox="0 0 148 146" fill="none" xmlns="http://www.w3.org/2000/svg">
<path d="M109.43 52.2023L108.712 50.9425L103.733 53.7812L104.452 55.0409C109.131 63.2478 110.33 72.8 107.83 81.9381C105.328 91.0763 99.4315 98.6856 91.2246 103.366C74.256 113.043 52.5769 107.108 42.8999 90.1385C33.2236 73.1685 39.1576 51.4901 56.1269 41.8139C65.7698 36.3158 77.1751 35.6529 87.2625 39.8637L84.0722 40.9595L85.9332 46.3786L98.2072 42.1634L93.5033 30.067L88.1633 32.1456L89.0379 34.3946C77.4296 29.7095 64.3114 30.5508 53.2883 36.8365C43.7528 42.2729 36.9014 51.1137 33.996 61.7284C31.09 72.3439 32.4846 83.4416 37.9218 92.9771C45.505 106.276 59.4319 113.74 73.7454 113.74C80.6505 113.74 87.6476 112.003 94.0632 108.344C103.599 102.906 110.45 94.0665 113.355 83.4503C116.262 72.8356 114.867 61.7378 109.43 52.2023Z" fill="#3F444A"/>
<path d="M115.249 97.2242C115.193 97.3177 115.138 97.4113 115.083 97.5041C114.569 98.3541 114.029 99.1903 113.461 100.013C113.391 100.115 113.32 100.216 113.248 100.317C113.016 100.647 112.781 100.974 112.54 101.299C112.476 101.384 112.414 101.47 112.35 101.556C112.05 101.954 111.745 102.349 111.432 102.739C111.38 102.805 111.325 102.869 111.272 102.935C111.009 103.259 110.741 103.582 110.469 103.9C110.377 104.008 110.285 104.115 110.192 104.221C109.915 104.54 109.633 104.856 109.346 105.169C109.29 105.231 109.235 105.293 109.178 105.355C108.838 105.722 108.491 106.084 108.137 106.442C108.047 106.533 107.954 106.624 107.864 106.715C107.587 106.992 107.307 107.265 107.022 107.536C106.916 107.636 106.811 107.737 106.705 107.836C106.333 108.183 105.956 108.529 105.571 108.867C105.228 109.169 104.88 109.463 104.531 109.754C104.418 109.848 104.304 109.938 104.191 110.031C103.951 110.226 103.709 110.421 103.466 110.612C103.334 110.715 103.202 110.817 103.068 110.919C102.838 111.096 102.606 111.271 102.374 111.443C102.239 111.542 102.104 111.641 101.968 111.74C101.726 111.915 101.484 112.087 101.24 112.256C101.115 112.343 100.99 112.431 100.865 112.516C100.576 112.714 100.283 112.907 99.9902 113.098C99.9112 113.149 99.8321 113.203 99.7531 113.254C99.3694 113.499 98.9843 113.739 98.597 113.974C98.563 113.994 98.5289 114.013 98.4948 114.034C98.1459 114.244 97.7949 114.448 97.441 114.648C97.3431 114.704 97.243 114.758 97.1436 114.813C96.8499 114.977 96.5562 115.136 96.2596 115.293C96.1493 115.352 96.0384 115.409 95.9267 115.467C95.6322 115.62 95.3356 115.77 95.039 115.917C94.9367 115.967 94.8359 116.017 94.7336 116.066C94.4 116.228 94.0642 116.385 93.7277 116.539C93.6661 116.567 93.6044 116.596 93.5421 116.625C92.2946 117.187 91.0284 117.694 89.7476 118.144C89.7128 118.156 89.6772 118.168 89.6424 118.18C89.2479 118.318 88.8526 118.45 88.4566 118.577C88.4167 118.59 88.3768 118.602 88.3377 118.615C87.9221 118.747 87.5066 118.873 87.0888 118.993C87.0816 118.995 87.0736 118.997 87.0663 118.999C69.6517 124.002 50.1215 118.966 37.3767 104.457C19.7235 84.3771 21.7092 53.8522 41.742 36.2265C61.798 18.6197 92.3744 20.617 109.981 40.6665C121.902 54.2286 124.85 72.6093 119.294 88.5321C119.265 88.614 119.236 88.6967 119.207 88.7787C119.058 89.2 118.903 89.6185 118.741 90.0355C118.721 90.087 118.703 90.1385 118.682 90.19C118.497 90.6643 118.305 91.1357 118.105 91.6042C118.088 91.6427 118.071 91.6804 118.054 91.7195C117.875 92.1351 117.688 92.5492 117.498 92.9604C117.455 93.0518 117.412 93.1425 117.37 93.2331C117.167 93.6639 116.957 94.0925 116.741 94.5183C116.733 94.5342 116.725 94.5495 116.717 94.5654C116.488 95.0151 116.25 95.4604 116.006 95.9042C115.96 95.9854 115.914 96.0659 115.869 96.1472C115.667 96.5083 115.46 96.8673 115.249 97.2242ZM147.083 78.887C147.316 76.0303 147.413 73.1373 147.312 70.2239C147.232 67.3918 146.962 64.5931 146.549 61.8531L131.966 59.4366L127.022 45.6395L136.74 34.4997C133.793 29.5956 130.285 25.0824 126.322 21.0217L113.099 27.6599L100.977 19.4167L102.288 4.6703C97.2604 2.5504 91.9436 0.957016 86.4245 -0.000305176L79.5549 13.1209L64.8933 13.4646L57.3638 0.7061C51.7279 1.99051 46.3415 3.90225 41.2873 6.38695L43.4471 21.0311L31.7952 29.9444L18.2179 24.083C14.4916 28.3489 11.241 33.0499 8.56992 38.118L18.9025 48.6819L14.7403 62.7314L0.310083 65.9827C0.0511693 68.8895 -0.0605266 71.8608 0.032305 74.8793C0.134565 77.6345 0.381881 80.3361 0.755383 83.0006L15.3452 85.4585L20.2428 99.2715L10.4606 110.385C13.4175 115.293 16.9081 119.856 20.8745 123.927L34.1226 117.332L46.2204 125.61L44.8497 140.359C50.0374 142.554 55.5094 144.207 61.1982 145.18L68.0293 132.027L82.688 131.622L90.2436 144.362C95.8752 143.053 101.254 141.113 106.304 138.617L104.102 123.981L115.714 115.017L129.305 120.841C133.033 116.547 136.275 111.837 138.924 106.774L128.531 96.2523L132.642 82.1608L147.083 78.887Z" fill="#00A99D"/>
<path d="M92.6917 55.6098L73.783 75.4228C73.7475 75.4221 73.712 75.4177 73.6757 75.4177C73.4393 75.4177 73.2079 75.4424 72.9845 75.4859L57.1597 63.528C56.1117 62.7419 54.6097 62.942 53.8112 64.0023C53.0141 65.0496 53.2194 66.5581 54.2797 67.3559L70.0995 79.3094C70.2525 81.1508 71.7944 82.6006 73.6757 82.6006C75.6585 82.6006 77.2664 80.992 77.2664 79.0092C77.2664 78.9142 77.2606 78.822 77.2526 78.7285L96.1576 58.9147C97.0693 57.9538 97.0374 56.4453 96.0779 55.5293C95.1242 54.6126 93.6084 54.6561 92.6917 55.6098Z" fill="#3F444A"/>
</svg>
